<mxfile host="65bd71144e" modified="2020-12-01T18:20:11.785Z" agent="5.0 (Windows NT 10.0; Win64; x64) AppleWebKit/537.36 (KHTML, like Gecko) Code/1.51.1 Chrome/83.0.4103.122 Electron/9.3.3 Safari/537.36" etag="IqbFFWFzBWjUa16LrmN4" version="13.6.5">
    <diagram id="IPMAe7qztrgxfbRRC-sc" name="Page-1">
        <mxGraphModel dx="1118" dy="534" grid="1" gridSize="10" guides="1" tooltips="1" connect="1" arrows="1" fold="1" page="1" pageScale="1" pageWidth="850" pageHeight="1100" math="0" shadow="0">
            <root>
                <mxCell id="0"/>
                <mxCell id="1" parent="0"/>
                <mxCell id="98wo0x7zFL-i7rmNiKDe-13" value="Workers" style="whiteSpace=wrap;html=1;fontSize=20;verticalAlign=top;fillColor=#99CCFF;" parent="1" vertex="1">
                    <mxGeometry x="210" y="40" width="410" height="140" as="geometry"/>
                </mxCell>
                <mxCell id="98wo0x7zFL-i7rmNiKDe-35" style="edgeStyle=orthogonalEdgeStyle;rounded=0;orthogonalLoop=1;jettySize=auto;html=1;exitX=1;exitY=0.75;exitDx=0;exitDy=0;entryX=0.25;entryY=1;entryDx=0;entryDy=0;startArrow=none;startFill=0;fontSize=12;" edge="1" parent="1" source="98wo0x7zFL-i7rmNiKDe-14" target="98wo0x7zFL-i7rmNiKDe-20">
                    <mxGeometry relative="1" as="geometry"/>
                </mxCell>
                <mxCell id="98wo0x7zFL-i7rmNiKDe-14" value="kubelet" style="shape=process;whiteSpace=wrap;html=1;backgroundOutline=1;fontSize=12;" parent="1" vertex="1">
                    <mxGeometry x="220" y="105" width="120" height="60" as="geometry"/>
                </mxCell>
                <mxCell id="98wo0x7zFL-i7rmNiKDe-15" value="kube-proxy" style="shape=process;whiteSpace=wrap;html=1;backgroundOutline=1;fontSize=12;" parent="1" vertex="1">
                    <mxGeometry x="490" y="105" width="120" height="60" as="geometry"/>
                </mxCell>
                <mxCell id="98wo0x7zFL-i7rmNiKDe-20" value="CRI (Docker, Containerd, etc.)" style="shape=process;whiteSpace=wrap;html=1;backgroundOutline=1;fillColor=#FFFFFF;fontSize=12;" vertex="1" parent="1">
                    <mxGeometry x="355" y="70" width="120" height="60" as="geometry"/>
                </mxCell>
                <mxCell id="98wo0x7zFL-i7rmNiKDe-11" value="Control Plane" style="rounded=0;whiteSpace=wrap;html=1;verticalAlign=top;fontSize=20;fillColor=#F5F5F5;container=0;" parent="1" vertex="1">
                    <mxGeometry x="210" y="190" width="410" height="200" as="geometry"/>
                </mxCell>
                <mxCell id="98wo0x7zFL-i7rmNiKDe-27" style="edgeStyle=orthogonalEdgeStyle;rounded=0;orthogonalLoop=1;jettySize=auto;html=1;exitX=1;exitY=0.5;exitDx=0;exitDy=0;entryX=0;entryY=0.5;entryDx=0;entryDy=0;fontSize=12;startArrow=classic;startFill=1;" edge="1" parent="1" source="98wo0x7zFL-i7rmNiKDe-1" target="98wo0x7zFL-i7rmNiKDe-19">
                    <mxGeometry relative="1" as="geometry"/>
                </mxCell>
                <mxCell id="98wo0x7zFL-i7rmNiKDe-1" value="kube-apiserver" style="shape=process;whiteSpace=wrap;html=1;backgroundOutline=1;container=0;" parent="1" vertex="1">
                    <mxGeometry x="355" y="230" width="120" height="60" as="geometry"/>
                </mxCell>
                <mxCell id="98wo0x7zFL-i7rmNiKDe-23" style="edgeStyle=orthogonalEdgeStyle;rounded=0;orthogonalLoop=1;jettySize=auto;html=1;exitX=0.5;exitY=0;exitDx=0;exitDy=0;entryX=0;entryY=0.75;entryDx=0;entryDy=0;fontSize=12;startArrow=classic;startFill=1;" edge="1" parent="1" source="98wo0x7zFL-i7rmNiKDe-2" target="98wo0x7zFL-i7rmNiKDe-1">
                    <mxGeometry relative="1" as="geometry"/>
                </mxCell>
                <mxCell id="98wo0x7zFL-i7rmNiKDe-2" value="kube-controller-manager" style="shape=process;whiteSpace=wrap;html=1;backgroundOutline=1;container=0;" parent="1" vertex="1">
                    <mxGeometry x="220" y="310" width="120" height="60" as="geometry"/>
                </mxCell>
                <mxCell id="98wo0x7zFL-i7rmNiKDe-22" style="edgeStyle=orthogonalEdgeStyle;rounded=0;orthogonalLoop=1;jettySize=auto;html=1;exitX=0.5;exitY=0;exitDx=0;exitDy=0;entryX=0.5;entryY=1;entryDx=0;entryDy=0;fontSize=12;startArrow=classic;startFill=1;" edge="1" parent="1" source="98wo0x7zFL-i7rmNiKDe-3" target="98wo0x7zFL-i7rmNiKDe-1">
                    <mxGeometry relative="1" as="geometry"/>
                </mxCell>
                <mxCell id="98wo0x7zFL-i7rmNiKDe-3" value="kube-scheduler" style="shape=process;whiteSpace=wrap;html=1;backgroundOutline=1;container=0;" parent="1" vertex="1">
                    <mxGeometry x="355" y="310" width="120" height="60" as="geometry"/>
                </mxCell>
                <mxCell id="98wo0x7zFL-i7rmNiKDe-19" value="etcd" style="shape=datastore;whiteSpace=wrap;html=1;fontSize=12;fillColor=#FFFFFF;container=0;" parent="1" vertex="1">
                    <mxGeometry x="530" y="230" width="60" height="60" as="geometry"/>
                </mxCell>
                <mxCell id="98wo0x7zFL-i7rmNiKDe-25" style="edgeStyle=orthogonalEdgeStyle;rounded=0;orthogonalLoop=1;jettySize=auto;html=1;exitX=0.25;exitY=1;exitDx=0;exitDy=0;entryX=1;entryY=0.25;entryDx=0;entryDy=0;fontSize=12;startArrow=classic;startFill=1;" edge="1" parent="1" source="98wo0x7zFL-i7rmNiKDe-15" target="98wo0x7zFL-i7rmNiKDe-1">
                    <mxGeometry relative="1" as="geometry"/>
                </mxCell>
                <mxCell id="98wo0x7zFL-i7rmNiKDe-24" style="edgeStyle=orthogonalEdgeStyle;rounded=0;orthogonalLoop=1;jettySize=auto;html=1;exitX=0.5;exitY=1;exitDx=0;exitDy=0;entryX=0;entryY=0.25;entryDx=0;entryDy=0;fontSize=12;startArrow=classic;startFill=1;" edge="1" parent="1" source="98wo0x7zFL-i7rmNiKDe-14" target="98wo0x7zFL-i7rmNiKDe-1">
                    <mxGeometry relative="1" as="geometry"/>
                </mxCell>
            </root>
        </mxGraphModel>
    </diagram>
</mxfile>